<?xml version="1.0" standalone="no"?>
<!DOCTYPE svg PUBLIC "-//W3C//DTD SVG 20010904//EN"
 "http://www.w3.org/TR/2001/REC-SVG-20010904/DTD/svg10.dtd">
<svg version="1.0" xmlns="http://www.w3.org/2000/svg"
 width="1078.000000pt" height="1330.000000pt" viewBox="0 0 1078.000000 1330.000000"
 preserveAspectRatio="xMidYMid meet">
<metadata>
Created by potrace 1.15, written by Peter Selinger 2001-2017
</metadata>
<g transform="translate(0.000000,1330.000000) scale(0.100000,-0.100000)"
fill="#000000" stroke="none">
<path d="M4829 11296 c-3 -3 -32 -8 -65 -10 -32 -3 -113 -10 -179 -16 -66 -7
-142 -11 -170 -9 -127 7 -353 0 -430 -14 -33 -6 -86 -23 -117 -39 -32 -16 -86
-35 -120 -43 -35 -8 -92 -23 -126 -34 -35 -12 -74 -21 -87 -21 -24 0 -138 -43
-185 -70 -14 -8 -64 -24 -113 -36 -48 -13 -100 -32 -116 -43 -16 -12 -40 -21
-53 -21 -26 0 -143 -73 -193 -120 -36 -34 -125 -75 -125 -58 0 7 -12 0 -27
-15 -32 -30 -104 -83 -218 -162 -150 -103 -178 -124 -223 -167 -24 -24 -52
-60 -61 -80 -9 -22 -36 -51 -65 -72 -109 -77 -250 -235 -271 -303 -5 -19 -3
-22 11 -16 16 6 15 2 -5 -32 -26 -44 -61 -173 -61 -225 0 -20 -7 -45 -15 -56
-19 -27 -35 -131 -34 -219 0 -73 19 -154 63 -268 14 -37 26 -81 26 -98 0 -16
6 -58 14 -92 24 -101 55 -279 57 -322 1 -22 -2 -69 -6 -105 -7 -56 -13 -70
-49 -110 -62 -68 -106 -127 -106 -142 0 -7 16 -26 35 -43 33 -29 34 -32 36
-110 1 -44 -4 -107 -11 -140 -16 -80 -22 -535 -8 -655 6 -52 16 -102 23 -110
7 -8 16 -28 19 -45 12 -56 88 -167 130 -190 21 -12 47 -34 58 -48 10 -14 36
-36 56 -48 20 -13 87 -73 147 -134 64 -65 125 -117 145 -125 19 -8 54 -29 76
-47 23 -19 70 -45 105 -58 34 -14 73 -35 86 -47 33 -31 63 -103 63 -150 0 -52
15 -78 45 -78 13 0 32 -8 42 -19 10 -10 33 -21 51 -24 44 -9 134 -79 178 -139
41 -55 186 -342 216 -428 11 -30 29 -86 40 -125 11 -38 25 -83 31 -100 6 -16
10 -52 9 -80 -4 -119 -2 -169 6 -174 23 -15 33 -60 36 -168 2 -65 9 -131 15
-146 6 -16 11 -65 11 -110 0 -83 15 -184 52 -337 11 -47 23 -106 27 -133 5
-34 17 -57 39 -80 18 -18 32 -38 32 -43 0 -16 82 -171 125 -239 21 -33 60 -80
85 -105 25 -25 72 -82 103 -126 31 -45 82 -103 113 -129 74 -64 160 -173 173
-221 14 -51 14 -110 -1 -133 -9 -15 -9 -31 0 -73 19 -82 24 -87 69 -63 38 20
113 109 113 134 0 16 40 84 47 78 9 -9 -35 -157 -55 -185 -17 -23 -19 -31 -8
-43 23 -26 37 -85 27 -112 -8 -20 -5 -28 15 -46 28 -24 30 -50 8 -114 -14 -41
-14 -53 -2 -101 11 -43 21 -61 52 -85 21 -17 49 -31 61 -31 24 0 95 -27 95
-35 0 -3 -16 -20 -36 -37 -31 -27 -35 -36 -30 -62 4 -16 15 -40 26 -51 23 -24
27 -83 9 -133 -9 -27 -7 -37 16 -76 14 -24 33 -50 41 -57 8 -6 21 -26 29 -43
9 -18 29 -40 46 -50 20 -12 40 -37 55 -72 27 -60 68 -90 175 -125 35 -12 69
-25 75 -30 5 -4 27 -6 47 -2 26 4 43 1 55 -9 12 -10 41 -14 97 -13 70 0 85 4
120 28 22 15 48 27 59 27 32 0 107 70 129 119 11 27 54 82 102 131 46 47 105
113 133 148 53 66 182 189 321 305 59 50 89 83 105 116 11 26 49 79 83 119 35
40 71 89 82 110 11 20 29 43 40 50 12 7 21 18 21 25 0 7 12 28 28 47 31 39
102 154 102 165 0 5 16 28 36 52 38 46 39 50 50 178 4 44 12 91 19 105 7 14
15 70 19 125 5 70 13 110 26 133 17 28 19 49 17 146 -2 80 -7 119 -17 135 -15
22 -13 26 45 85 43 44 76 93 117 171 31 61 80 148 107 194 28 46 51 90 51 97
0 6 17 33 39 59 21 25 43 63 49 84 18 58 12 140 -13 197 -14 31 -23 71 -23
101 0 28 -5 66 -11 85 -6 18 -11 56 -10 83 0 28 -2 67 -6 88 -8 44 1 47 42 13
15 -13 44 -31 63 -41 19 -9 42 -24 51 -31 43 -38 294 -87 361 -71 29 8 118 83
118 101 0 19 -51 53 -106 70 -133 42 -226 77 -299 114 -44 22 -102 47 -130 55
-27 8 -66 23 -85 34 -19 11 -66 37 -105 57 -38 21 -75 42 -82 48 -20 16 -26
68 -12 95 11 20 11 26 -1 33 -19 12 -46 12 -84 0 -17 -5 -47 -12 -66 -15 -26
-4 -63 -29 -139 -95 -57 -49 -121 -101 -142 -116 -51 -35 -118 -37 -177 -6
-23 12 -51 22 -62 22 -10 0 -35 9 -55 21 l-35 21 -36 -27 c-19 -15 -39 -38
-45 -52 -9 -24 -11 -24 -82 -19 -39 3 -121 10 -182 17 -167 19 -332 14 -386
-11 -24 -11 -66 -20 -94 -20 -27 -1 -71 -5 -97 -9 -55 -9 -53 -1 6 34 42 25
105 34 346 51 41 3 92 12 112 21 27 12 56 14 105 10 91 -8 135 7 200 66 l54
49 57 -30 c65 -35 138 -62 167 -62 42 0 166 102 207 170 12 19 32 47 46 62 20
22 23 33 18 65 -13 78 -17 99 -24 151 -5 29 -18 65 -29 80 -11 15 -24 39 -28
52 -4 14 -15 39 -25 56 -10 17 -21 47 -25 65 -22 107 -89 234 -165 314 -81 85
-150 177 -179 240 -40 84 -44 110 -26 145 8 16 15 42 15 59 0 23 10 38 45 67
l46 37 116 -1 c141 -1 150 3 255 110 103 106 106 120 33 189 -32 30 -61 56
-66 59 -5 3 -15 25 -24 49 -8 23 -28 59 -43 79 -51 66 -50 85 3 41 167 -139
225 -194 225 -212 0 -22 33 -30 90 -22 42 6 55 14 92 54 24 26 51 62 60 79 14
26 23 32 51 32 19 0 54 9 78 20 53 24 91 24 143 1 36 -15 37 -18 21 -31 -13
-11 -37 -14 -82 -12 -42 2 -75 -3 -97 -13 -45 -22 -116 -92 -116 -115 0 -21
-44 -60 -68 -60 -29 0 -123 -83 -213 -189 -50 -58 -101 -111 -113 -118 -18 -9
-36 -9 -85 1 -61 13 -63 12 -99 -14 -52 -38 -67 -58 -98 -124 l-27 -59 17 -54
c10 -30 15 -66 11 -82 -4 -20 1 -37 20 -65 14 -20 31 -52 39 -70 7 -17 50 -68
95 -112 87 -85 89 -90 126 -257 9 -38 25 -81 37 -97 25 -34 43 -176 25 -199
-9 -10 -7 -16 6 -26 9 -7 17 -18 17 -26 0 -8 13 -34 29 -59 25 -40 35 -47 81
-58 28 -7 65 -12 82 -12 17 0 70 -5 118 -12 79 -10 89 -14 104 -39 9 -15 16
-41 16 -57 0 -46 55 -74 200 -102 80 -16 144 -40 170 -64 23 -21 96 -46 130
-44 8 1 47 -2 85 -6 65 -7 72 -6 105 18 66 48 77 51 128 36 26 -7 56 -12 67
-11 11 2 67 4 125 6 60 2 129 11 160 20 30 9 77 21 105 26 27 5 63 18 79 31
17 12 55 39 86 59 68 45 79 57 126 139 46 82 54 115 86 360 9 69 18 97 49 150
21 36 41 79 45 95 3 17 15 44 25 60 9 17 25 53 34 80 17 50 98 218 189 390 27
50 62 102 80 116 31 26 102 155 107 194 1 11 -1 28 -6 38 -4 10 -2 24 6 34 22
26 18 322 -4 354 -10 13 -17 31 -17 40 0 9 -9 28 -21 43 -11 15 -33 48 -47 74
-25 45 -26 52 -23 190 2 146 3 139 -52 370 -8 34 -24 55 -78 105 -38 35 -69
68 -69 74 0 5 -18 19 -39 31 -21 12 -41 29 -45 37 -3 8 -15 15 -27 15 -27 0
-103 45 -144 86 -40 40 -53 100 -59 259 -3 107 -7 126 -31 175 -25 48 -29 67
-31 160 -1 58 -5 112 -8 120 -2 8 -7 26 -9 40 -10 48 -39 115 -59 137 -12 12
-36 27 -54 33 -19 7 -34 15 -34 19 0 4 -21 20 -47 34 -27 15 -59 43 -73 62
-16 23 -49 47 -96 70 -39 19 -76 41 -83 49 -6 7 -28 17 -49 21 -20 4 -49 13
-64 21 -16 8 -74 16 -145 20 -65 3 -156 15 -203 26 -74 18 -91 26 -130 64 -50
48 -130 94 -163 94 -36 0 -118 -54 -174 -113 -40 -42 -53 -51 -53 -36 0 27 -8
24 -75 -24 -33 -24 -95 -60 -138 -80 -43 -20 -91 -46 -105 -58 -15 -11 -56
-34 -91 -50 -45 -20 -84 -49 -132 -99 -38 -38 -73 -70 -77 -70 -12 0 -117 -74
-176 -125 -173 -148 -219 -185 -232 -185 -8 0 -36 -11 -62 -24 -60 -30 -142
-45 -142 -25 0 8 16 25 35 39 19 14 49 44 67 68 18 24 60 60 93 80 33 20 76
50 95 68 19 17 69 50 110 73 84 48 118 76 130 108 5 12 36 35 72 53 35 17 79
44 98 59 19 15 44 30 55 34 128 40 221 94 326 189 86 78 91 89 96 203 4 107
10 147 28 195 27 72 29 112 7 161 -11 24 -23 65 -26 91 -3 26 -10 56 -15 65
-5 10 -14 32 -21 48 -29 72 -50 101 -90 123 -50 28 -184 52 -291 52 -142 0
-303 29 -478 86 -85 27 -120 45 -171 85 -54 43 -181 69 -333 69 -154 0 -213
10 -302 54 -38 19 -82 39 -98 45 -30 12 -299 27 -308 17z m263 -85 c29 -10 74
-31 100 -45 63 -36 131 -48 268 -46 63 0 140 -4 170 -11 30 -6 75 -15 98 -20
26 -5 68 -27 104 -54 33 -25 72 -48 87 -51 14 -4 65 -19 112 -34 131 -43 232
-61 369 -66 149 -6 290 -28 346 -55 26 -12 47 -32 57 -52 41 -84 59 -133 64
-179 3 -27 14 -66 24 -86 24 -47 24 -88 -1 -145 -22 -48 -28 -92 -34 -225 -3
-83 -3 -84 -47 -128 -51 -52 -117 -91 -209 -124 -36 -13 -86 -38 -111 -56 -26
-18 -73 -45 -105 -60 -34 -16 -83 -52 -121 -91 -35 -34 -65 -63 -68 -63 -11 0
-123 -76 -155 -105 -19 -17 -57 -44 -84 -60 -51 -29 -255 -224 -275 -263 -10
-18 -9 -23 4 -28 26 -10 94 5 169 37 106 45 106 45 184 115 40 35 86 71 102
79 15 8 53 38 84 67 34 34 74 60 105 71 55 19 116 72 142 123 13 24 31 37 75
54 33 12 70 32 84 45 14 13 60 40 104 60 43 20 100 52 126 71 l48 34 -10 -37
c-5 -21 -11 -49 -13 -62 -2 -12 -13 -33 -24 -45 -11 -12 -27 -38 -36 -59 -9
-22 -31 -47 -54 -62 -57 -35 -111 -85 -111 -101 0 -8 4 -14 8 -14 21 0 164 53
221 82 63 33 146 112 135 129 -3 5 -10 6 -16 3 -5 -4 -3 4 5 17 25 39 41 110
38 170 -2 52 0 58 29 82 17 15 42 30 55 33 34 8 123 -38 172 -89 38 -40 51
-47 130 -66 49 -11 144 -25 213 -30 79 -6 136 -15 155 -25 17 -9 39 -16 49
-16 11 0 34 -11 52 -25 18 -14 36 -25 41 -25 17 1 102 -46 103 -56 1 -26 81
-89 193 -149 29 -16 52 -36 58 -53 6 -15 18 -42 26 -61 8 -19 18 -95 24 -173
8 -120 13 -147 35 -191 23 -46 27 -67 30 -172 7 -205 31 -262 131 -321 27 -15
52 -33 56 -41 4 -7 17 -13 27 -13 11 0 20 -6 20 -14 0 -8 10 -16 23 -20 26 -6
192 -147 201 -171 3 -9 10 -45 16 -81 6 -36 17 -85 26 -110 12 -34 15 -81 13
-197 -3 -148 -2 -153 23 -199 14 -26 36 -59 47 -74 12 -15 21 -34 21 -43 0 -9
7 -27 16 -40 24 -33 28 -278 5 -304 -11 -13 -15 -37 -13 -82 1 -64 1 -65 -65
-162 -36 -54 -76 -120 -90 -148 -13 -27 -42 -84 -64 -125 -67 -124 -105 -202
-128 -265 -13 -33 -33 -80 -46 -105 -13 -25 -28 -64 -34 -86 -6 -23 -25 -58
-41 -79 -34 -42 -34 -44 -50 -165 -26 -204 -38 -255 -77 -330 -32 -62 -117
-131 -169 -135 -32 -3 -57 -10 -151 -40 -33 -11 -57 -12 -105 -4 -47 8 -73 7
-100 -2 -29 -9 -47 -9 -85 1 -26 7 -55 14 -64 16 -9 2 -37 -12 -63 -32 -50
-38 -61 -40 -186 -31 -84 6 -125 19 -155 47 -19 18 -166 72 -183 68 -13 -3
-77 14 -124 34 -43 18 -48 24 -48 52 0 43 -46 109 -71 103 -10 -3 -35 -1 -56
3 -21 5 -70 11 -110 14 -143 10 -180 37 -182 130 0 21 -6 45 -12 52 -6 8 -15
46 -19 85 -5 48 -15 81 -29 100 -12 16 -26 50 -31 76 -37 182 -47 202 -164
312 -27 25 -55 60 -62 78 -8 17 -25 49 -39 69 -19 28 -24 45 -20 66 4 16 0 49
-10 78 -16 47 -15 51 3 93 11 25 24 47 29 50 4 3 31 1 58 -4 33 -6 60 -6 82 2
36 11 129 101 226 217 51 61 74 79 132 106 73 34 139 96 151 140 4 19 14 25
47 29 23 3 53 3 68 0 20 -4 45 6 95 35 115 67 142 112 75 127 -17 4 -33 11
-36 16 -10 15 -82 10 -133 -10 -27 -11 -59 -17 -70 -15 -38 11 -101 -39 -180
-140 -18 -24 -30 -30 -59 -29 -24 1 -40 7 -46 20 -16 27 -72 81 -169 162 -49
39 -88 78 -88 86 0 45 -83 2 -125 -66 -30 -46 -27 -66 16 -121 17 -21 36 -57
44 -80 10 -30 35 -62 80 -104 59 -54 65 -63 57 -85 -6 -13 -30 -43 -55 -66
l-46 -42 -111 5 c-105 5 -114 4 -153 -20 -65 -38 -177 -159 -177 -190 0 -15
-7 -43 -15 -63 -19 -45 -13 -78 29 -158 38 -72 87 -137 170 -226 63 -68 146
-204 146 -238 0 -11 5 -23 10 -26 6 -3 10 -18 10 -33 0 -15 11 -48 25 -74 14
-26 25 -53 25 -59 0 -7 13 -33 29 -58 21 -34 32 -68 40 -131 6 -47 14 -96 17
-110 4 -19 -3 -37 -28 -69 -50 -66 -98 -111 -116 -111 -25 0 -120 38 -177 70
-46 26 -52 27 -82 15 -18 -8 -52 -35 -77 -61 -42 -43 -49 -47 -88 -45 -24 2
-61 4 -83 5 -22 1 -56 -5 -75 -15 -32 -15 -109 -24 -300 -34 -108 -6 -138 -16
-217 -72 -62 -44 -123 -105 -123 -123 0 -17 209 9 278 34 44 17 269 25 291 11
6 -3 41 -6 79 -6 37 0 87 -7 111 -15 30 -10 66 -13 114 -10 61 5 75 10 113 41
37 31 47 34 65 25 11 -6 26 -9 33 -7 7 3 26 -3 42 -14 39 -25 104 -34 149 -19
20 6 74 41 121 76 47 35 89 64 93 64 5 0 27 20 50 45 23 25 49 45 59 45 9 0
38 7 63 16 50 18 92 13 71 -8 -15 -15 -15 -32 -2 -79 9 -31 20 -41 68 -66 31
-16 87 -46 124 -66 37 -20 75 -37 85 -37 10 0 74 -27 141 -60 68 -33 147 -66
175 -74 113 -32 183 -59 202 -78 20 -20 20 -20 -35 -14 -30 4 -68 8 -85 10
-84 8 -168 36 -226 74 -121 79 -144 92 -176 98 -28 5 -40 1 -78 -31 -46 -37
-56 -64 -31 -84 17 -14 28 -69 26 -135 0 -26 4 -64 11 -83 6 -20 11 -58 11
-86 0 -30 9 -70 23 -101 39 -89 29 -198 -24 -259 -16 -17 -42 -60 -60 -95 -17
-35 -39 -76 -50 -90 -10 -15 -49 -85 -87 -157 -54 -105 -80 -142 -131 -191
-59 -57 -76 -84 -53 -84 32 0 40 -230 9 -290 -12 -23 -20 -70 -25 -135 -4 -57
-13 -109 -20 -120 -8 -11 -14 -40 -14 -65 0 -93 -20 -172 -54 -219 -18 -25
-50 -76 -70 -112 -20 -36 -48 -80 -64 -97 -51 -59 -79 -97 -96 -132 -9 -19
-44 -66 -77 -104 -33 -38 -67 -86 -76 -107 -11 -29 -41 -60 -112 -117 -109
-88 -237 -213 -296 -287 -22 -27 -85 -98 -141 -156 -56 -58 -105 -116 -108
-127 -14 -42 -174 -120 -191 -93 -4 7 -22 9 -44 5 -24 -4 -41 -2 -45 5 -4 6
-27 11 -51 11 -53 0 -178 39 -239 75 -33 19 -48 36 -61 70 -10 28 -32 58 -57
78 -22 18 -49 48 -59 69 -10 20 -22 38 -27 40 -4 1 -18 18 -30 35 -20 29 -22
37 -13 70 18 64 14 120 -11 143 l-22 20 36 38 c44 46 52 69 33 88 -19 20 -79
44 -108 44 -13 0 -40 12 -59 27 -48 38 -67 116 -44 182 21 58 20 83 -5 115
-14 17 -19 35 -15 50 3 12 -3 46 -14 75 -18 51 -18 53 0 84 11 18 26 61 34 97
29 121 19 135 -53 74 -45 -39 -121 -144 -121 -167 0 -8 -6 -20 -14 -26 -11
-10 -15 -8 -20 6 -13 47 -17 93 -8 109 6 11 12 54 15 96 3 42 8 82 12 88 4 7
-1 9 -17 5 -18 -5 -29 2 -53 32 -16 21 -68 76 -115 123 -47 47 -112 123 -145
169 -33 45 -76 98 -96 116 -21 19 -54 60 -75 92 -44 68 -124 222 -124 238 0 6
-16 26 -35 45 -28 27 -35 42 -35 71 0 20 -7 56 -16 80 -24 67 -55 250 -64 379
-4 63 -15 154 -23 203 -10 56 -12 100 -7 124 6 26 4 47 -7 72 -9 20 -15 49
-14 65 1 16 -5 39 -14 52 -13 20 -13 31 -3 69 10 36 10 52 -1 78 -7 17 -17 53
-21 78 -5 26 -20 75 -33 110 -14 35 -28 75 -32 89 -4 14 -27 63 -50 110 -23
47 -61 124 -84 171 -73 147 -168 248 -263 280 -21 7 -43 18 -49 26 -6 7 -24
13 -39 13 -32 0 -40 15 -40 70 0 55 -42 141 -82 167 -18 12 -58 31 -89 42 -30
12 -68 34 -85 50 -16 15 -50 38 -77 50 -43 20 -108 78 -232 209 -22 23 -44 42
-50 42 -5 0 -38 27 -73 60 -34 33 -69 60 -77 60 -33 0 -138 230 -119 261 2 4
-4 12 -13 18 -17 9 -18 33 -17 323 1 232 5 331 16 383 16 76 11 220 -8 233
-57 38 -58 41 -45 66 7 13 41 56 76 95 58 66 63 75 70 133 4 35 6 81 6 103 -2
49 -36 248 -56 327 -8 32 -15 70 -15 85 0 35 -22 107 -58 193 -25 60 -27 75
-27 200 1 117 4 141 23 184 12 27 22 61 22 77 0 48 30 160 56 208 13 25 24 54
24 65 0 10 10 35 22 54 12 20 16 32 8 27 -11 -7 -11 -4 1 11 19 27 137 134
147 134 17 0 112 100 131 139 13 25 41 54 74 76 143 98 206 143 238 169 19 16
76 49 127 74 57 27 116 65 153 97 60 53 113 85 144 85 9 0 30 9 46 21 16 11
68 30 116 41 49 12 99 29 113 38 27 19 149 60 245 83 33 9 74 20 90 25 17 6
53 15 80 22 28 6 73 22 100 36 53 26 162 47 171 32 3 -4 13 -4 22 1 21 11 206
25 277 21 92 -5 129 -4 255 9 69 6 149 14 179 16 29 2 56 7 60 11 13 13 259
-6 313 -25z"/>
</g>
</svg>
